<?xml version="1.0" encoding="utf-8"?>
<!-- Generator: Adobe Illustrator 24.3.0, SVG Export Plug-In . SVG Version: 6.00 Build 0)  -->
<svg version="1.1" id="Capa_1" xmlns="http://www.w3.org/2000/svg" xmlns:xlink="http://www.w3.org/1999/xlink" x="0px" y="0px"
	 viewBox="0 0 448 512" style="enable-background:new 0 0 448 512;" xml:space="preserve">
<style type="text/css">
	.st0{fill:#999999;}
</style>
<path d="M352,288H173.3l49.4,49.4c12.5,12.5,12.5,32.8,0,45.2s-32.8,12.5-45.2,0l-104-104c-8-7.9-9.4-17.7-9.4-22.6
	s1.4-14.7,9.4-22.6l103.1-103.1c12.5-12.5,32.8-12.5,45.2,0s12.5,32.8,0,45.2L173.3,224H352c17.7,0,32,14.3,32,32S369.7,288,352,288
	z"/>
<path class="st0" d="M384,32H64C28.6,32,0,60.7,0,96v320c0,35.3,28.6,64,64,64h320c35.4,0,64-28.7,64-64V96
	C448,60.7,419.3,32,384,32z M352,288H173.3l49.4,49.4c12.5,12.5,12.5,32.8,0,45.2s-32.8,12.5-45.2,0l-104-104
	c-8-7.9-9.4-17.7-9.4-22.6s1.4-14.7,9.4-22.6l103.1-103.1c12.5-12.5,32.8-12.5,45.2,0s12.5,32.8,0,45.2L173.3,224H352
	c17.7,0,32,14.3,32,32S369.7,288,352,288z"/>
</svg>
